<?xml version="1.0" standalone="no"?>
<!DOCTYPE svg PUBLIC "-//W3C//DTD SVG 20010904//EN"
 "http://www.w3.org/TR/2001/REC-SVG-20010904/DTD/svg10.dtd">
<svg version="1.0" xmlns="http://www.w3.org/2000/svg"
 width="1176.000000pt" height="1176.000000pt" viewBox="0 0 1176.000000 1176.000000"
 preserveAspectRatio="xMidYMid meet">
<metadata>
Created by potrace 1.14, written by Peter Selinger 2001-2017
</metadata>
<g transform="translate(0.000000,1176.000000) scale(0.100000,-0.100000)"
fill="#000000" stroke="none">
<path d="M1645 11518 c-156 -179 -219 -250 -230 -262 -6 -6 -87 -99 -180 -206
-93 -107 -184 -211 -201 -230 -18 -19 -193 -219 -389 -445 -197 -225 -386
-441 -420 -480 -34 -38 -92 -104 -128 -145 l-65 -75 849 -3 c467 -1 1232 -1
1700 0 l850 3 -251 295 c-139 162 -264 309 -278 325 -15 17 -90 104 -167 195
-77 91 -149 176 -161 190 -12 14 -95 111 -184 215 -158 185 -226 264 -270 315
-11 14 -29 34 -38 45 -39 46 -127 150 -132 155 -3 3 -45 52 -94 110 -49 58
-92 109 -96 113 -4 4 -55 -48 -115 -115z"/>
<path d="M2217 11617 c27 -34 167 -201 173 -207 3 -3 53 -61 110 -130 57 -69
107 -127 110 -130 3 -3 52 -61 110 -130 57 -69 107 -127 110 -130 3 -3 48 -57
100 -120 52 -63 97 -117 100 -120 5 -4 327 -386 395 -469 11 -13 25 -28 30
-35 6 -6 60 -69 120 -141 60 -71 111 -132 115 -135 3 -3 16 -18 29 -35 12 -16
42 -52 67 -80 24 -28 50 -59 57 -69 14 -19 18 -15 144 131 10 12 52 58 93 103
41 45 81 90 90 99 81 94 129 148 150 171 14 15 36 40 50 56 14 16 169 191 344
389 176 198 349 394 385 434 36 41 89 100 116 131 28 31 82 92 120 135 39 44
108 122 155 175 47 52 91 103 99 113 13 16 -69 17 -1689 17 l-1701 0 18 -23z"/>
<path d="M5849 11588 c-56 -65 -100 -117 -164 -188 -27 -30 -75 -85 -106 -120
-70 -80 -281 -323 -358 -410 -32 -36 -91 -103 -132 -150 -40 -47 -78 -90 -84
-96 -5 -6 -35 -40 -65 -74 -30 -35 -59 -68 -65 -74 -5 -6 -37 -43 -70 -81 -32
-39 -66 -77 -75 -86 -8 -9 -26 -29 -40 -45 -14 -16 -57 -65 -95 -109 -38 -44
-74 -85 -80 -91 -5 -6 -32 -38 -60 -69 -27 -32 -59 -68 -70 -80 -11 -13 -42
-49 -70 -81 -27 -32 -71 -81 -97 -109 l-46 -50 1695 -3 c933 -1 1698 0 1701 2
3 4 -263 324 -292 351 -6 6 -47 53 -91 105 -82 98 -90 108 -170 200 -26 30
-57 66 -69 80 -121 143 -252 296 -256 300 -3 3 -41 48 -85 100 -44 52 -90 106
-101 120 -12 14 -149 174 -304 355 -155 182 -287 336 -294 343 -10 10 -21 2
-57 -40z"/>
<path d="M6350 11634 c0 -4 55 -72 123 -152 67 -79 162 -192 212 -251 49 -58
136 -162 194 -231 58 -69 113 -134 123 -145 9 -11 60 -72 113 -135 54 -63 165
-196 249 -294 83 -98 165 -195 181 -215 17 -20 126 -150 243 -289 l213 -252
38 43 c21 23 80 89 131 147 52 58 123 139 160 180 37 41 82 93 101 115 19 22
37 42 40 45 3 3 61 68 129 145 68 77 127 142 130 145 3 3 36 41 74 85 39 44
75 85 80 90 6 6 56 62 111 125 55 63 102 117 106 120 3 3 43 48 89 100 47 52
89 100 95 106 5 6 37 42 71 80 183 207 253 286 313 353 36 40 68 77 69 82 2 5
-721 9 -1692 9 -933 0 -1696 -3 -1696 -6z"/>
<path d="M10023 11476 c-4 -8 -36 -45 -69 -82 -34 -38 -146 -166 -249 -284
-103 -118 -200 -229 -216 -247 -16 -18 -79 -90 -140 -160 -62 -70 -136 -155
-165 -188 -29 -33 -62 -71 -74 -85 -12 -14 -36 -41 -53 -60 -18 -20 -75 -85
-127 -145 -52 -61 -97 -112 -100 -115 -3 -3 -71 -79 -150 -170 -79 -91 -156
-178 -170 -195 -107 -119 -180 -205 -180 -213 0 -5 713 -9 1690 -9 930 0 1690
3 1690 6 0 5 -278 334 -413 491 -20 23 -195 227 -407 475 -46 55 -95 111 -107
125 -11 14 -105 124 -208 245 -103 121 -199 234 -214 250 -14 17 -76 89 -136
160 -60 72 -124 146 -142 165 -18 19 -33 38 -33 43 0 12 -19 8 -27 -7z"/>
<path d="M51 8152 c-9 -3 41 -75 204 -297 29 -38 69 -95 90 -125 21 -30 42
-59 47 -65 5 -5 67 -91 139 -190 71 -99 137 -189 145 -200 8 -11 132 -182 275
-380 143 -198 358 -494 477 -658 119 -164 224 -308 232 -320 21 -33 173 -241
180 -247 3 -3 10 -13 15 -22 8 -13 293 -407 509 -703 56 -76 821 -1133 859
-1185 25 -36 50 -69 54 -75 5 -5 73 -100 152 -210 79 -110 164 -227 188 -260
25 -33 95 -130 157 -215 62 -85 243 -335 402 -555 159 -220 310 -428 334 -462
25 -34 119 -164 210 -289 91 -125 179 -246 195 -270 165 -234 456 -623 452
-603 -4 14 -9 44 -12 65 -4 21 -8 47 -11 56 -3 9 -7 26 -9 39 -2 12 -23 107
-45 210 -22 104 -58 276 -80 381 -23 106 -47 220 -55 253 -7 33 -17 78 -21
100 -4 22 -8 45 -10 50 -5 20 -26 121 -30 150 -3 17 -7 36 -10 44 -2 7 -11 48
-19 90 -9 42 -20 94 -25 116 -18 76 -52 236 -55 258 -2 12 -15 76 -30 142 -15
66 -29 131 -31 145 -3 14 -29 142 -60 285 -30 143 -73 346 -95 450 -21 105
-43 206 -49 225 -5 19 -12 55 -15 80 -4 24 -8 47 -10 51 -2 3 -7 21 -10 40 -3
19 -11 54 -16 79 -6 25 -13 54 -15 65 -7 34 -12 58 -23 105 -5 25 -12 56 -14
70 -4 21 -18 91 -22 110 -1 3 -7 30 -13 60 -7 30 -14 64 -16 75 -2 11 -14 65
-26 120 -18 85 -75 358 -85 405 -2 8 -15 71 -30 140 -61 288 -101 474 -109
515 -8 41 -38 181 -42 200 -3 11 -9 40 -14 65 -5 25 -12 56 -15 70 -3 14 -7
36 -10 50 -6 31 -9 46 -30 140 -9 41 -18 85 -21 98 -2 13 -15 74 -29 135 -13
62 -27 127 -30 146 -3 19 -7 37 -9 40 -2 3 -7 23 -10 43 -3 21 -11 59 -17 85
-10 48 -61 288 -79 373 -5 25 -12 56 -15 70 -2 14 -10 50 -16 80 -5 30 -14 69
-19 85 -5 17 -11 46 -14 65 -3 19 -7 44 -10 55 -3 11 -14 63 -25 115 -11 52
-37 171 -56 265 -20 93 -39 172 -41 175 -6 5 -3747 7 -3763 2z"/>
<path d="M4225 8125 c2 -16 18 -95 35 -175 17 -80 35 -165 40 -190 5 -25 12
-56 15 -70 3 -14 8 -38 10 -55 3 -16 8 -38 11 -47 5 -17 11 -43 20 -93 3 -16
9 -48 14 -70 5 -22 12 -56 15 -75 3 -19 8 -43 11 -52 3 -9 6 -25 8 -35 2 -10
12 -54 21 -98 9 -44 19 -91 21 -105 3 -14 16 -77 29 -140 13 -63 45 -214 70
-335 45 -220 69 -332 106 -500 11 -49 22 -103 25 -120 2 -16 14 -73 25 -125
11 -52 23 -106 25 -120 2 -14 9 -45 14 -70 11 -49 14 -62 35 -165 21 -102 22
-109 51 -245 14 -69 28 -134 30 -145 2 -11 24 -114 48 -230 25 -115 47 -221
50 -235 8 -43 24 -121 56 -270 16 -80 48 -230 70 -335 21 -104 55 -264 74
-355 19 -91 44 -212 56 -270 12 -58 23 -112 25 -120 2 -8 13 -62 25 -120 11
-58 23 -112 25 -120 1 -8 10 -49 19 -90 8 -41 34 -163 56 -270 23 -107 44
-206 46 -220 2 -14 13 -65 24 -115 11 -49 33 -157 50 -240 18 -82 33 -157 35
-165 2 -8 13 -62 25 -120 11 -58 23 -116 26 -130 3 -14 19 -88 35 -165 17 -77
33 -151 35 -165 3 -14 12 -56 20 -95 8 -38 17 -79 18 -90 3 -17 20 -98 42
-200 19 -85 26 -122 27 -133 2 -38 20 32 81 303 36 165 68 309 70 320 2 11 20
90 40 175 19 85 38 166 40 180 2 14 14 63 25 110 11 47 22 96 25 110 3 14 20
95 40 180 19 85 37 166 39 180 3 14 10 43 15 65 6 22 14 56 17 75 3 19 10 51
15 70 11 42 37 155 44 190 5 24 34 155 151 675 31 138 58 259 61 270 2 11 11
50 19 88 8 37 22 97 30 135 8 37 17 77 19 90 3 12 7 30 10 40 3 9 7 28 10 42
3 14 17 77 31 140 15 63 29 126 31 140 3 14 12 54 20 90 9 36 17 72 19 80 20
87 24 108 28 130 3 14 13 57 22 95 9 39 19 81 21 95 3 14 9 41 14 60 5 19 21
89 35 155 14 66 28 127 30 135 2 8 31 139 64 290 34 151 68 304 77 339 9 36
18 74 20 85 2 12 6 32 9 46 3 14 7 34 10 45 14 68 97 434 105 464 5 20 11 50
14 66 3 17 22 102 42 190 37 162 90 399 100 445 3 14 14 66 26 115 11 50 24
110 29 134 5 23 14 62 20 85 6 22 13 52 15 66 3 14 11 52 19 85 8 33 16 71 19
85 2 14 9 43 14 65 6 22 13 51 16 65 2 14 12 59 21 100 10 41 20 85 22 98 3
12 1 23 -3 23 -5 1 -719 2 -1587 3 l-1577 1 5 -30z"/>
<path d="M7791 8145 c-5 -5 -27 -95 -51 -200 -23 -104 -55 -248 -71 -320 -16
-71 -31 -139 -33 -150 -2 -11 -9 -40 -15 -65 -7 -25 -14 -56 -17 -70 -10 -49
-99 -444 -135 -595 -10 -44 -21 -91 -23 -105 -6 -33 -4 -20 -148 -655 -27
-121 -51 -229 -54 -240 -2 -11 -28 -129 -59 -263 -30 -133 -56 -252 -59 -265
-2 -12 -11 -51 -20 -87 -13 -54 -67 -291 -81 -356 -2 -11 -16 -71 -30 -134
-14 -63 -42 -185 -61 -270 -19 -85 -37 -164 -39 -175 -3 -11 -8 -33 -11 -50
-2 -16 -10 -48 -15 -70 -6 -22 -12 -47 -14 -55 -2 -8 -12 -55 -24 -105 -11
-49 -22 -101 -25 -115 -2 -14 -11 -54 -20 -90 -20 -83 -46 -198 -52 -230 -3
-13 -14 -63 -25 -110 -12 -47 -23 -95 -25 -106 -2 -12 -18 -81 -34 -154 -16
-73 -32 -142 -34 -154 -3 -11 -16 -68 -30 -126 -13 -58 -27 -116 -30 -130 -2
-14 -9 -45 -15 -70 -5 -25 -12 -56 -15 -70 -3 -14 -7 -35 -10 -48 -9 -33 -92
-399 -101 -442 -2 -8 -22 -98 -45 -200 -23 -102 -48 -212 -55 -245 -8 -33 -46
-202 -85 -375 -39 -173 -74 -326 -76 -340 -3 -14 -9 -43 -14 -65 -5 -22 -8
-41 -6 -42 2 -2 18 19 37 46 19 27 137 185 263 352 126 167 378 502 560 744
182 242 336 447 343 455 7 8 186 247 399 530 213 283 673 895 1023 1360 349
465 788 1048 973 1295 186 248 344 457 351 465 6 9 181 240 387 515 206 275
377 502 380 505 22 22 803 1070 801 1076 -2 13 -3851 12 -3860 -1z"/>
</g>
</svg>
